# xmcd
#
# Track frame offsets: 
#        150
#        18757
#        39984
#        72019
#        92676
#        114721
#        129135
#        147642
#        181550
#        200603
#        229673
#        247694
#        280893
#        306583
#        333564
#
# Disc length: 4787 seconds
#
# Revision: 1
# Processed by: cddbd v1.5.2PL0 Copyright (c) Steve Scherf et al.
# Submitted via: ExactAudioCopy v1.3
#
DISCID=c912b10f
DTITLE=Various Artist - Akella Presents - vol.88 - Black Pure Blues  
DTITLE=CD2
DYEAR=2016
DGENRE=Blues
TTITLE0=Big Pete Pearson - Hole In My Pocket
TTITLE1=DC Bellamy and America's Most Wanted - Dimples
TTITLE2=The Chris Cain Band - Trouble Makin' Woman
TTITLE3=Lil' Ed and The Blues Imperials - Troubled World
TTITLE4=Maurice John Vaughn - Watching Your Watch
TTITLE5=Bobby Rush with Blind Dog Smokin' - Love Of A Woman
TTITLE6=Johnny Copeland - Cut Off My Right Arm
TTITLE7=Little Al Thomas - Your Breakin' My Heart
TTITLE8=Daddy Mack Blues Band - Woman Do Right
TTITLE9=Little Willie Anderson - Big Fat Mama
TTITLE10=Freddie King - Big Legged Woman
TTITLE11=Stoney B and Grampa - Blind Man
TTITLE12=Eddie Kirkland - In My Dreams
TTITLE13=Andy T and Nick Nixon - This World We Live In
TTITLE14=Omar Coleman - I Was A Fool
EXTD=
EXTT0=
EXTT1=
EXTT2=
EXTT3=
EXTT4=
EXTT5=
EXTT6=
EXTT7=
EXTT8=
EXTT9=
EXTT10=
EXTT11=
EXTT12=
EXTT13=
EXTT14=
PLAYORDER=
